<svg xmlns="http://www.w3.org/2000/svg" width="430" height="430" style="width:100%;height:100%;transform:translate3d(0,0,0);content-visibility:visible" viewBox="0 0 430 430"><defs><clipPath id="e"><path d="M0 0h430v430H0z"/></clipPath><clipPath id="q"><path d="M0 0h430v430H0z"/></clipPath><clipPath id="r"><path d="M0 0h430v430H0z"/></clipPath><clipPath id="n"><path d="M0 0h430v430H0z"/></clipPath><clipPath id="o"><path d="M0 0h430v430H0z"/></clipPath><clipPath id="k"><path d="M0 0h430v430H0z"/></clipPath><clipPath id="l"><path d="M0 0h430v430H0z"/></clipPath><clipPath id="h"><path d="M0 0h430v430H0z"/></clipPath><clipPath id="i"><path d="M0 0h430v430H0z"/></clipPath><clipPath id="g"><path d="M0 0h430v430H0z"/></clipPath><clipPath id="f"><path d="M0 0h430v430H0z"/></clipPath><path id="a" style="display:none"/><path id="b" fill="#FFC738" d="M34.485-23.879a2.998 2.998 0 0 0 0-4.242l-6.364-6.364a3 3 0 0 0-4.243 0L0-10.607l-23.202-23.201a3 3 0 0 0-4.242 0l-6.364 6.364a3 3 0 0 0 0 4.243L-10.607 0l-23.879 23.879a3 3 0 0 0 0 4.242l6.364 6.364a3 3 0 0 0 4.243 0L0 10.607l23.201 23.201a3 3 0 0 0 4.242 0l6.364-6.364a3 3 0 0 0 0-4.243L10.606 0l23.879-23.879z" style="display:block" transform="translate(250 259)"/><path id="c" style="display:none"/><path id="d" style="display:none"/><mask id="s" mask-type="alpha"><use xmlns:ns1="http://www.w3.org/1999/xlink" ns1:href="#a"/></mask><mask id="p" mask-type="alpha"><use xmlns:ns2="http://www.w3.org/1999/xlink" ns2:href="#b"/></mask><mask id="m" mask-type="alpha"><use xmlns:ns3="http://www.w3.org/1999/xlink" ns3:href="#c"/></mask><mask id="j" mask-type="alpha"><use xmlns:ns4="http://www.w3.org/1999/xlink" ns4:href="#d"/></mask></defs><g clip-path="url(#e)"><g clip-path="url(#f)" style="display:none"><g style="display:none"><path fill="none" class="septenary"/><path class="septenary"/></g><g style="display:none"><path fill="none" class="septenary"/><path class="septenary"/></g><path fill="none" class="primary" style="display:none"/><path class="septenary" style="mix-blend-mode:multiply;display:none"/><path fill="none" class="primary" style="display:none"/><g style="display:none"><path fill="none" class="septenary"/><path class="septenary"/></g><path fill="none" class="primary" style="display:none"/><path fill="none" class="primary" style="display:none"/><path class="septenary" style="mix-blend-mode:multiply;display:none"/><g style="display:none"><path fill="none" class="septenary"/><path class="septenary"/></g><path fill="none" class="primary" style="display:none"/><path fill="none" class="primary" style="display:none"/><path class="septenary" style="mix-blend-mode:multiply;display:none"/><path class="septenary" style="mix-blend-mode:multiply;display:none"/><g style="display:none"><path fill="none" class="septenary"/><path class="septenary"/></g><path fill="none" class="primary" style="display:none"/><path fill="none" class="primary" style="display:none"/><path class="septenary" style="mix-blend-mode:multiply;display:none"/></g><g clip-path="url(#g)" style="display:none"><g style="display:none"><path fill="none" class="septenary"/><path class="septenary"/></g><g style="display:none"><path fill="none" class="septenary"/><path class="septenary"/></g><path fill="none" class="primary" style="display:none"/><path class="septenary" style="mix-blend-mode:multiply;display:none"/><path fill="none" class="primary" style="display:none"/><g style="display:none"><path fill="none" class="septenary"/><path class="septenary"/></g><path fill="none" class="primary" style="display:none"/><path fill="none" class="primary" style="display:none"/><path class="septenary" style="mix-blend-mode:multiply;display:none"/><path class="septenary" style="mix-blend-mode:multiply;display:none"/><g style="display:none"><path fill="none" class="septenary"/><path class="septenary"/></g><path fill="none" class="primary" style="display:none"/><path fill="none" class="primary" style="display:none"/><path class="septenary" style="mix-blend-mode:multiply;display:none"/><path class="septenary" style="mix-blend-mode:multiply;display:none"/><g style="display:none"><path fill="none" class="septenary"/><path class="septenary"/></g><path fill="none" class="primary" style="display:none"/><path fill="none" class="primary" style="display:none"/><path class="septenary" style="mix-blend-mode:multiply;display:none"/><path class="septenary" style="mix-blend-mode:multiply;display:none"/></g><g clip-path="url(#h)" style="display:none"><g style="display:none"><path fill="none" class="septenary"/><path class="septenary"/></g><g style="display:none"><path fill="none" class="septenary"/><path class="septenary"/></g><g style="display:none"><path fill="none" class="senary"/><path class="senary"/></g><g style="display:none"><path fill="none" class="senary"/><path class="senary"/><g style="mix-blend-mode:multiply"><path fill="none" class="senary"/><path class="senary"/></g><path class="septenary"/><path class="septenary" style="mix-blend-mode:multiply"/><path class="septenary"/></g><g style="display:none"><path class="septenary"/><path class="septenary" style="mix-blend-mode:multiply"/><path class="septenary"/></g><g fill="none" style="mix-blend-mode:multiply;display:none"><path class="septenary"/><path class="septenary"/></g><g style="display:none"><g fill="none" style="mix-blend-mode:multiply"><path class="senary"/><path class="senary" style="mix-blend-mode:multiply"/></g></g><g style="display:none"><path fill="none" class="septenary"/><path class="septenary"/></g><path fill="none" class="primary" style="display:none"/><path class="septenary" style="mix-blend-mode:multiply;display:none"/><g style="display:none"><path fill="none" class="senary"/><path class="senary"/></g><path class="senary" style="mix-blend-mode:multiply;display:none"/><path class="senary" style="mix-blend-mode:multiply;display:none"/><g style="display:none"><path fill="none" class="septenary"/><path class="septenary"/></g><path class="septenary" style="mix-blend-mode:multiply;display:none"/><path fill="none" class="primary" style="display:none"/><g clip-path="url(#i)" style="display:none"><path class="secondary" style="display:none"/><g mask="url(#j)" style="mix-blend-mode:multiply;display:none"><path class="secondary"/></g><path fill="none" class="primary" style="display:none"/></g></g><g clip-path="url(#k)" style="display:none"><path class="senary" style="display:none"/><path class="senary" style="mix-blend-mode:multiply;display:none"/><path class="senary" style="display:none"/><path class="senary" style="mix-blend-mode:multiply;display:none"/><path class="senary" style="mix-blend-mode:multiply;display:none"/><g style="display:none"><path fill="none" class="senary"/><path class="senary"/><g style="mix-blend-mode:multiply"><path fill="none" class="senary"/><path class="senary"/></g><path class="septenary"/><path class="septenary" style="mix-blend-mode:multiply"/><path class="septenary"/></g><g fill="none" style="mix-blend-mode:multiply;display:none"><path class="septenary"/><path class="septenary"/></g><g style="display:none"><path fill="none" class="secondary"/><path fill="none" class="secondary"/><path class="secondary"/></g><g style="mix-blend-mode:multiply;display:none"><path fill="none" class="secondary"/><path class="secondary"/></g><g clip-path="url(#l)" style="display:none"><path class="secondary" style="display:none"/><g mask="url(#m)" style="mix-blend-mode:multiply;display:none"><path class="secondary"/></g><path fill="none" class="primary" style="display:none"/></g><path class="quinary" style="display:none"/><path class="quinary" style="mix-blend-mode:multiply;display:none"/><path fill="none" class="tertiary" style="display:none"/><path fill="none" class="tertiary" style="display:none"/><path fill="none" class="tertiary" style="display:none"/><path fill="none" class="tertiary" style="display:none"/><path class="tertiary" style="display:none"/><path class="tertiary" style="mix-blend-mode:multiply;display:none"/><path class="tertiary" style="mix-blend-mode:multiply;display:none"/><path class="tertiary" style="mix-blend-mode:multiply;display:none"/><path class="tertiary" style="mix-blend-mode:multiply;display:none"/><path class="tertiary" style="mix-blend-mode:multiply;display:none"/><path class="secondary" style="display:none"/><path fill="none" class="quaternary" style="display:none"/><path fill="none" class="quaternary" style="display:none"/><path fill="none" class="quaternary" style="display:none"/><path class="quaternary" style="display:none"/><path fill="none" class="quaternary" style="display:none"/><path class="secondary" style="mix-blend-mode:multiply;display:none"/><path class="quaternary" style="mix-blend-mode:multiply;display:none"/><path class="quaternary" style="mix-blend-mode:multiply;display:none"/><path class="quaternary" style="mix-blend-mode:multiply;display:none"/><path class="quaternary" style="mix-blend-mode:multiply;display:none"/><path class="quaternary" style="mix-blend-mode:multiply;display:none"/></g><g clip-path="url(#n)" style="display:block"><g style="display:block"><path fill="none" stroke="#4BB3FD" stroke-linecap="round" stroke-linejoin="round" stroke-width="4.32" d="M347.238 93.606V399.28H114.182c-8.587 0-16.271-3.39-21.92-9.04-5.537-5.536-9.04-13.22-9.04-21.807V62.759m264.016 30.96H114.182c-17.062 0-30.96-13.898-30.96-30.96S97.12 31.8 114.182 31.8h233.056v61.92z" class="senary"/><path fill="#4BB3FD" d="M347.238 93.606V399.28H114.182c-8.587 0-16.271-3.39-21.92-9.04-5.537-5.536-9.04-13.22-9.04-21.807V62.759m264.016 30.96H114.182c-17.062 0-30.96-13.898-30.96-30.96S97.12 31.8 114.182 31.8h233.056v61.92z" class="senary"/></g><g opacity=".5" style="mix-blend-mode:multiply;display:block"><path fill="#4BB3FD" d="m80.994 58.255-.431 309.7c0 9.475 3.865 17.954 9.973 24.063 6.234 6.234 14.712 9.974 24.187 9.974h23.832c-9.474 0-17.952-3.74-24.186-9.974-6.109-6.109-9.974-14.588-9.974-24.063l.43-309.7h-23.83z" class="senary" opacity="1"/></g><g style="display:block"><path fill="none" stroke="#4BB3FD" stroke-linecap="round" stroke-linejoin="round" stroke-width="4.32" d="M347.238 93.72H114.182c-17.062 0-30.96-13.899-30.96-30.96 0-17.063 13.898-30.96 30.96-30.96h233.056v61.92z" class="senary"/><path fill="#4BB3FD" d="M347.238 93.72H114.182c-17.062 0-30.96-13.899-30.96-30.96 0-17.063 13.898-30.96 30.96-30.96h233.056v61.92z" class="senary"/><g opacity=".5" style="mix-blend-mode:multiply"><path fill="none" stroke="#4BB3FD" stroke-linecap="round" stroke-linejoin="round" stroke-width="4.32" d="M347.238 93.72H114.182c-17.062 0-30.96-13.899-30.96-30.96 0-17.063 13.898-30.96 30.96-30.96h233.056v61.92z" class="senary"/><path fill="#4BB3FD" d="M347.238 93.72H114.182c-17.062 0-30.96-13.899-30.96-30.96 0-17.063 13.898-30.96 30.96-30.96h233.056v61.92z" class="senary"/></g><g fill="#EBE6EF"><path d="M350.026 83.042H114.569c-11.09 0-20.124-9.035-20.124-20.125s9.033-20.123 20.124-20.123h235.456v40.248z" class="septenary"/><path fill-opacity=".5" d="M122.23-108.167h-335.409c-15.798 0-28.666-12.869-28.666-28.667 0-15.798 12.868-28.666 28.666-28.666H122.23v57.333z" class="septenary" style="mix-blend-mode:multiply" transform="matrix(.702 0 0 .702 264.22 158.975)"/></g><path fill="#EBE6EF" d="M350.043 83.042h-210.1c-9.896 0-17.956-9.035-17.956-20.125s8.06-20.123 17.956-20.123h210.1v40.248z" class="septenary"/></g><g opacity=".5" style="mix-blend-mode:multiply;display:block"><g fill="none" stroke="#EBE6EF" stroke-width="7.56" opacity="1"><path stroke-dasharray="87.48 293.76" stroke-linecap="round" d="M163.142 62.85h186.84" class="septenary"/><path d="M163.142 62.85h186.84" class="septenary"/></g></g><path fill="#4BB3FD" fill-opacity=".5" d="M0-75c41.393 0 75 33.607 75 75S41.393 75 0 75-75 41.393-75 0s33.607-75 75-75z" class="senary" style="mix-blend-mode:multiply;display:block" transform="translate(214.333 238.99)"/><g clip-path="url(#o)" style="display:block" transform="translate(.5)"><path fill="#FFC738" d="M34.485-23.879a2.998 2.998 0 0 0 0-4.242l-6.364-6.364a3 3 0 0 0-4.243 0L0-10.607l-23.202-23.201a3 3 0 0 0-4.242 0l-6.364 6.364a3 3 0 0 0 0 4.243L-10.607 0l-23.879 23.879a3 3 0 0 0 0 4.242l6.364 6.364a3 3 0 0 0 4.243 0L0 10.607l23.201 23.201a3 3 0 0 0 4.242 0l6.364-6.364a3 3 0 0 0 0-4.243L10.606 0l23.879-23.879z" class="secondary" style="display:block" transform="translate(250 259)"/><g mask="url(#p)" opacity=".5" style="mix-blend-mode:multiply;display:block"><path fill="#FFC738" d="M249.405 82.989v423h-82.5v-423h82.5z" class="secondary" opacity="1"/></g><path fill="none" stroke="#3A3347" stroke-linecap="round" stroke-linejoin="round" stroke-width="7" d="M81-46.5H-3.501l-30.572 93-20.065-42.827H-81" class="primary" style="display:block" transform="translate(211.229 245.671)"/></g></g><g clip-path="url(#q)" style="display:none"><g style="display:none"><path fill="none" class="senary"/><path class="senary"/></g><path class="senary" style="mix-blend-mode:multiply;display:none"/><g style="display:none"><path fill="none" class="senary"/><path class="senary"/><g style="mix-blend-mode:multiply"><path fill="none" class="senary"/><path class="senary"/></g><path class="septenary"/><path class="septenary" style="mix-blend-mode:multiply"/><path class="septenary"/></g><g fill="none" style="mix-blend-mode:multiply;display:none"><path class="septenary"/><path class="septenary"/></g><path class="senary" style="mix-blend-mode:multiply;display:none"/><g clip-path="url(#r)" style="display:none"><path class="secondary" style="display:none"/><g mask="url(#s)" style="mix-blend-mode:multiply;display:none"><path class="secondary"/></g><path fill="none" class="primary" style="display:none"/></g></g></g></svg>